<?xml version="1.0" standalone="no"?>
<!DOCTYPE svg PUBLIC "-//W3C//DTD SVG 1.1//EN" "http://www.w3.org/Graphics/SVG/1.1/DTD/svg11.dtd" >
<svg xmlns="http://www.w3.org/2000/svg">
<metadata>Generated by IcoMoon</metadata>
<defs>
<font id="icon-set-climate" horiz-adv-x="1024">
<font-face units-per-em="1024" ascent="960" descent="-64" />
<missing-glyph horiz-adv-x="1024" />
<glyph unicode="&#x20;" horiz-adv-x="512" d="" />
<glyph unicode="&#xe900;" glyph-name="arrow-down" d="M993.018 617.384l-448.346-405.812c-17.26-15.413-43.143-15.413-60.418 0l-453.334 405.812c-18.486 19.163-19.98 45.091-3.353 63.69 17.697 19.445 46.215 19.163 63.772 3.382l420.645-378.757 420.729 378.757c18.582 16.563 47.033 15.109 63.744-3.348 16.57-18.633 15.161-44.561-3.438-63.723z" />
<glyph unicode="&#xe901;" glyph-name="plus" d="M512.007-55.993c-35.538 3.231-54.921 22.614-58.152 58.152v387.681h-387.681c-35.538 3.231-54.921 22.614-58.152 58.152 3.231 35.538 22.614 54.921 58.152 58.152h387.681v387.681c3.231 35.538 22.614 54.921 58.152 58.152 35.538-3.231 54.921-22.614 58.152-58.152v-387.681h387.681c35.538-3.231 54.921-22.614 58.152-58.152-3.231-35.538-22.614-54.921-58.152-58.152h-387.681v-387.681c-3.231-35.538-22.614-54.921-58.152-58.152z" />
<glyph unicode="&#xe902;" glyph-name="arrow-left" d="M752.366-46.519c7.735 7.067 11.6 16.735 11.6 26.436 0 8.755-3.163 17.507-9.561 24.433l-407.427 443.454 407.436 443.746c13.499 14.625 12.655 37.438-2.039 50.871-14.624 13.5-37.324 12.586-50.822-2.004l-431.949-467.977c-12.797-13.851-12.797-35.008 0-48.868l431.949-467.977c13.558-14.488 36.19-15.613 50.813-2.113v0z" />
<glyph unicode="&#xe903;" glyph-name="arrow-right" d="M271.641-46.519c-7.735 7.067-11.6 16.735-11.6 26.436 0 8.755 3.163 17.507 9.561 24.433l407.427 443.454-407.436 443.746c-13.499 14.625-12.655 37.438 2.039 50.871 14.624 13.5 37.324 12.586 50.822-2.004l431.949-467.977c12.797-13.851 12.797-35.008 0-48.868l-431.949-467.977c-13.558-14.488-36.19-15.613-50.813-2.113v0z" />
<glyph unicode="&#xe904;" glyph-name="cross" d="M22.888-41.201c19.693-19.695 51.557-19.695 71.272 0l417.836 417.975 417.93-417.975c19.693-19.695 51.557-19.695 71.272 0 19.693 19.695 19.693 51.562 0 71.28l-418.025 417.881 417.962 417.975c19.693 19.695 19.693 51.562 0 71.28-19.693 19.695-51.557 19.695-71.272 0l-417.867-418.070-417.93 417.975c-19.693 19.695-51.557 19.695-71.272 0-19.693-19.695-19.693-51.562 0-71.28l418.025-417.881-417.93-417.975c-19.841-19.528-19.841-51.656 0-71.185z" />
<glyph unicode="&#xe905;" glyph-name="profile" d="M512.004 448.007c-73.634 1.312-135.675 25.593-186.129 72.841-49.089 48.561-74.315 108.277-75.679 179.149 1.363 70.872 26.59 130.588 75.679 179.149 50.453 47.248 112.494 71.529 186.129 72.841 73.634-1.312 135.675-25.593 186.129-72.841 49.089-48.561 74.315-108.277 75.679-179.149-1.363-70.872-26.59-130.588-75.679-179.149-50.453-47.248-112.494-71.529-186.129-72.841zM616.318 353.511c99.542-2.625 182.719-36.092 249.535-100.402s101.586-144.368 104.314-240.178c0-19.687-6.818-36.093-20.453-49.217s-30.681-19.687-51.134-19.687h-773.151c-20.453 0-37.498 6.563-51.134 19.687s-20.453 29.53-20.453 49.217c2.728 95.809 37.498 175.867 104.314 240.178s149.993 97.777 249.535 100.402h208.627z" />
<glyph unicode="&#xe906;" glyph-name="building" d="M401.747 495.248c28.875-2.625 44.624-18.374 47.248-47.248v-62.997c-2.625-28.875-18.374-44.624-47.248-47.248h-62.997c-28.875 2.625-44.624 18.374-47.248 47.248v62.997c2.625 28.875 18.374 44.624 47.248 47.248h62.997zM323 385.003c1.312-9.187 6.562-14.437 15.749-15.749h62.997c9.187 1.312 14.437 6.562 15.749 15.749v62.997c-1.312 9.187-6.562 14.437-15.749 15.749h-62.997c-9.187-1.312-14.437-6.562-15.749-15.749v-62.997zM574.99 448c2.625 28.875 18.374 44.624 47.248 47.248h62.997c28.875-2.625 44.624-18.374 47.248-47.248v-62.997c-2.625-28.875-18.374-44.624-47.248-47.248h-62.997c-28.875 2.625-44.624 18.374-47.248 47.248v62.997zM622.237 463.749c-9.187-1.312-14.437-6.562-15.749-15.749v-62.997c1.312-9.187 6.562-14.437 15.749-15.749h62.997c9.187 1.312 14.437 6.562 15.749 15.749v62.997c-1.312 9.187-6.562 14.437-15.749 15.749h-62.997zM401.747 747.238c28.875-2.625 44.624-18.374 47.248-47.248v-62.997c-2.625-28.875-18.374-44.624-47.248-47.248h-62.997c-28.875 2.625-44.624 18.374-47.248 47.248v62.997c2.625 28.875 18.374 44.624 47.248 47.248h62.997zM323 636.992c1.312-9.187 6.562-14.437 15.749-15.749h62.997c9.187 1.312 14.437 6.562 15.749 15.749v62.997c-1.312 9.187-6.562 14.437-15.749 15.749h-62.997c-9.187-1.312-14.437-6.562-15.749-15.749v-62.997zM574.99 699.99c2.625 28.875 18.374 44.624 47.248 47.248h62.997c28.875-2.625 44.624-18.374 47.248-47.248v-62.997c-2.625-28.875-18.374-44.624-47.248-47.248h-62.997c-28.875 2.625-44.624 18.374-47.248 47.248v62.997zM622.237 715.739c-9.187-1.312-14.437-6.562-15.749-15.749v-62.997c1.312-9.187 6.562-14.437 15.749-15.749h62.997c9.187 1.312 14.437 6.562 15.749 15.749v62.997c-1.312 9.187-6.562 14.437-15.749 15.749h-62.997zM228.504-55.979c-26.249 1.312-48.56 10.5-66.935 27.562-17.062 18.374-26.249 40.686-27.562 66.935v818.966c1.312 26.249 10.5 48.56 27.562 66.935 18.374 17.062 40.686 26.249 66.935 27.562h566.976c26.249-1.312 48.56-10.5 66.935-27.562 17.062-18.374 26.249-40.686 27.562-66.935v-818.966c-1.312-26.249-10.5-48.56-27.562-66.935-18.374-17.062-40.686-26.249-66.935-27.562h-566.976zM165.506 857.483v-818.966c0-18.374 5.905-33.468 17.718-45.28s26.905-17.718 45.279-17.718h188.992v157.494c1.312 26.249 10.5 48.56 27.562 66.935 18.374 17.062 40.686 26.249 66.935 27.562 26.249-1.312 48.56-10.5 66.935-27.562 17.062-18.374 26.249-40.686 27.562-66.935v-157.494h188.992c18.374 0 33.468 5.905 45.279 17.718s17.718 26.905 17.718 45.28v818.966c0 18.374-5.905 33.468-17.718 45.28s-26.905 17.718-45.279 17.718h-566.976c-18.374 0-33.468-5.905-45.279-17.718s-17.718-26.905-17.718-45.28zM448.995-24.481h125.995v157.494c0 18.374-5.905 33.468-17.718 45.28s-26.905 17.718-45.279 17.718c-18.374 0-33.468-5.905-45.279-17.718s-17.718-26.905-17.718-45.28v-157.494z" />
<glyph unicode="&#xe907;" glyph-name="trees" d="M477.466 397.808l125.578-142.75c9.418-11.504 11.512-24.054 6.279-37.648-7.326-12.549-18.313-19.348-32.964-20.393h-252.728v-138.044c-1.046-7.32-5.233-11.504-12.558-12.549-7.326 0-11.511 4.706-12.558 14.118v136.475h-252.728c-14.651 1.045-25.639 7.844-32.964 20.393-5.233 13.595-3.139 26.144 6.279 37.648l125.578 142.75h-48.662c-14.651 1.045-25.639 7.844-32.964 20.393-5.233 13.595-3.663 26.144 4.709 37.648l124.009 142.75h-45.522c-15.698 1.045-26.685 8.366-32.964 21.962-5.233 13.595-3.139 26.144 6.279 37.648l172.67 183.536c5.233 5.229 10.988 7.844 17.267 7.844 8.372 0 15.174-2.614 20.407-7.844l172.67-183.536c9.418-11.504 11.512-24.054 6.279-37.648-6.279-13.595-17.267-20.916-32.964-21.962h-45.522l124.009-142.75c8.372-11.504 9.942-24.054 4.709-37.648-7.326-13.595-18.313-20.393-32.964-20.393h-48.662zM585.777 229.958c2.092 3.138 2.092 6.275 0 9.413l-163.252 183.536h102.033c6.279 0 9.942 2.092 10.988 6.275 2.092 3.138 1.57 6.798-1.57 10.981l-156.973 183.536h98.893c5.233 0 8.372 2.092 9.418 6.275 2.092 4.183 1.57 7.844-1.57 10.981l-172.67 183.536-172.67-183.536c-3.139-3.138-4.186-6.798-3.139-10.981 2.092-4.183 5.755-6.275 10.988-6.275h100.463l-158.543-183.536c-3.139-4.183-3.663-7.844-1.57-10.981 1.046-4.183 4.186-6.275 9.418-6.275h103.602l-161.682-183.536c-3.139-3.138-3.663-6.798-1.57-10.981s5.233-6.275 9.418-6.275h252.728v170.986l-84.765 83.14c-4.186 6.275-4.186 12.549 0 18.824 6.279 4.183 12.558 4.183 18.837 0l65.929-67.453v158.437c1.046 7.32 5.233 11.504 12.558 12.549 7.326-1.045 11.511-5.229 12.558-12.549v-258.833l65.929 67.453c6.279 4.183 12.558 4.183 18.837 0 4.186-6.275 4.186-12.549 0-18.824l-84.765-83.14v-70.591h252.728c4.186 0 7.326 2.614 9.418 7.844zM1004.896 255.057c9.418-11.504 11.512-24.054 6.279-37.648-7.326-12.549-18.313-19.348-32.964-20.393h-252.728v-138.044c-1.046-7.32-5.233-11.504-12.558-12.549-8.372 1.045-12.558 5.229-12.558 12.549v233.734l-84.765 83.14c-4.186 6.275-4.186 12.549 0 18.824 6.279 4.183 12.558 4.183 18.837 0l64.359-67.453v258.833c1.046 7.32 5.233 11.504 12.558 12.549 7.326-1.045 11.511-5.229 12.558-12.549v-158.437l65.929 67.453c6.279 4.183 12.558 4.183 18.837 0 4.186-6.275 4.186-12.549 0-18.824l-84.765-83.14v-170.986h254.296c4.186 0 7.326 2.092 9.418 6.275s1.57 7.844-1.57 10.981l-161.682 183.536h103.602c5.233 0 8.895 2.092 10.988 6.275 1.046 3.138 0 6.798-3.139 10.981l-156.973 183.536h98.893c4.186 0 7.326 2.092 9.418 6.275s1.57 7.844-1.57 10.981l-172.67 183.536-150.695-158.437c-5.233-5.229-10.988-5.229-17.267 0-5.233 6.275-5.233 12.026 0 17.255l149.124 158.437c5.233 5.229 11.511 7.844 18.837 7.844s13.604-2.614 18.837-7.844l172.67-183.536c9.418-11.504 11.512-24.054 6.279-37.648-6.279-13.595-17.267-20.916-32.964-21.962h-45.522l124.009-142.75c8.372-11.504 9.942-24.054 4.709-37.648-7.326-13.595-18.313-20.393-32.964-20.393h-48.662l125.578-142.75z" />
<glyph unicode="&#xe908;" glyph-name="tree" d="M953.709 180.254c17.723-22.312 21.131-45.936 10.224-70.872s-31.356-38.061-61.348-39.373h-374.223v-110.246c-1.363-9.187-6.817-14.437-16.36-15.749-9.543 1.312-14.996 6.563-16.36 15.749v110.246h-374.223c-29.993 1.312-50.441 14.437-61.348 39.373s-7.499 48.56 10.224 70.872l141.1 157.494h-30.674c-27.266 1.312-45.67 12.469-55.213 33.467-10.906 20.999-8.18 41.342 8.18 61.029l124.741 141.744h-22.494c-21.813 1.312-37.49 9.843-47.033 25.593-8.18 15.749-5.453 31.499 8.18 47.248l276.067 289.394c10.906 10.5 23.857 15.749 38.854 15.749s27.947-5.249 38.854-15.749l276.067-289.394c13.633-15.749 16.36-31.499 8.18-47.248-9.543-15.749-25.221-24.281-47.033-25.593h-22.494l124.741-141.744c16.36-19.688 19.086-40.030 8.18-61.029-9.543-20.999-27.947-32.155-55.213-33.467h-30.674l141.1-157.494zM933.259 121.193c2.727 2.625 4.090 7.875 4.090 15.749 1.363 7.875-1.363 15.749-8.18 23.624l-188.134 208.68h102.247c16.36 3.938 25.221 9.187 26.584 15.749 4.090 5.249 2.727 14.437-4.090 27.562l-169.73 192.931h92.023c9.543 1.312 15.678 4.594 18.404 9.843 1.363 5.249 0 9.187-4.090 11.813l-274.021 287.427c-4.090 3.938-9.543 5.906-16.36 5.906s-11.588-1.969-14.314-5.906l-276.067-287.427c-4.090-2.625-4.771-6.563-2.044-11.813 1.363-5.249 6.817-8.531 16.36-9.843h94.067l-171.774-192.931c-6.817-13.124-8.18-22.312-4.090-27.562 1.363-6.563 10.224-11.813 26.584-15.749h102.247l-186.090-208.68c-6.817-7.875-10.224-15.749-10.224-23.624s1.363-13.124 4.090-15.749c0-2.625 2.727-6.563 8.18-11.813s12.951-7.875 22.494-7.875h374.223v277.582l-126.787 120.089c-5.453 7.875-5.453 15.749 0 23.624 8.18 5.249 16.36 5.249 24.539 0l102.247-98.434v198.836c1.363 9.187 6.817 14.437 16.36 15.749 9.543-1.312 14.996-6.563 16.36-15.749v-326.8l102.247 100.402c8.18 5.249 16.36 5.249 24.539 0 5.453-7.875 5.453-15.749 0-23.624l-126.787-120.089v-151.588h374.223c9.543 0 17.041 2.625 22.494 7.875s8.18 9.187 8.18 11.813z" />
<glyph unicode="&#xe909;" glyph-name="recycle-bin" d="M421.439 952h181.12c28.875-1.312 51.187-13.78 66.936-37.404l55.123-88.591h212.619c9.187-1.312 14.437-6.562 15.749-15.749-1.312-9.187-6.562-14.437-15.749-15.749h-850.477c-9.187 1.312-14.437 6.562-15.749 15.749 1.312 9.187 6.562 14.437 15.749 15.749h212.619l55.123 88.591c15.749 23.624 38.061 36.093 66.936 37.404zM421.439 920.501c-17.062 0-30.842-7.218-41.343-21.655l-45.28-72.842h354.365l-45.28 72.842c-10.5 14.437-24.281 21.655-41.343 21.655h-181.12zM220.633 48.367c2.625-21 11.156-38.061 25.593-51.187 14.437-14.437 32.156-21.655 53.155-21.655h425.239c21 0 38.717 7.218 53.155 21.655 13.125 13.125 21.655 30.186 25.593 51.187l55.123 669.357c1.312 9.187 7.218 13.78 17.719 13.78 9.187-1.312 13.125-7.218 11.812-17.719l-53.155-669.357c-3.937-28.875-16.406-52.499-37.404-70.873-19.687-19.687-43.968-29.53-72.842-29.53h-425.239c-28.875 0-53.811 9.844-74.811 29.53-19.687 18.374-31.499 41.999-35.437 70.873l-55.123 669.357c0 10.5 4.593 16.406 13.78 17.719 10.5 0 16.406-4.593 17.719-13.78l55.123-669.357zM437.752 299.968c6.806 0 11.686-5.535 11.686-12.375s-4.838-12.375-11.679-12.375h-61.595c-22.838 0-43.103 11.755-54.211 31.563-10.948 19.451-9.865 42.461 1.039 61.556l54.177 89.175-39.684-11.478c-6.566-1.981-13.432 1.887-15.329 8.461-1.9 6.497 1.879 13.381 8.445 15.313l67.241 19.49c3.094 0.928 6.497 0.541 9.435-1.083 2.862-1.547 4.949-4.254 5.873-7.421l19.467-67.241c1.895-6.551-1.885-13.411-8.445-15.322-1.147-0.338-2.308-0.483-3.444-0.483-5.374 0-10.317 3.527-11.887 8.94l-10.843 37.441-53.863-88.649c-6.888-11.331-7.118-25.012-0.616-36.568 6.666-11.868 18.87-18.948 32.646-18.948h61.587zM701.023 368.338c11.602-19.104 11.989-42.073 1.006-61.556-11.122-19.769-31.378-31.563-54.216-31.563h-93.584l27.696-28.379c4.834-4.825 4.834-12.661 0-17.495-2.417-2.418-6.272-3.625-8.747-3.625s-5.646 1.237-8.074 3.627l-49.491 49.498c-4.834 4.825-4.834 12.661 0 17.495l49.491 49.498c4.834 4.834 12.661 4.825 17.495 0s4.834-12.661 0-17.495l-28.37-28.377h93.584c13.767 0 25.987 7.115 32.683 18.945 6.501 11.556 6.271 25.23-0.616 36.568l-29.962 49.329c-3.552 5.847-1.692 13.462 4.144 17.016 5.862 3.504 13.448 1.643 17-4.157l29.962-49.329zM544.019 579.070c-6.806 11.214-18.795 17.889-32.020 17.889s-25.214-6.675-31.998-17.885l-23.118-38.044c-3.542-5.8-11.175-7.686-17-4.157-5.835 3.551-7.696 11.167-4.143 17.016l23.047 38.044c11.37 18.655 31.246 29.777 53.211 29.777s41.842-11.122 53.211-29.777l41.917-69.083 12.042 41.595c1.903 6.576 8.739 10.37 15.338 8.461 6.56-1.91 10.343-8.771 8.445-15.322l-19.467-67.241c-0.917-3.166-3.045-5.825-5.919-7.396-1.849-1.039-3.904-1.547-5.97-1.547-1.16 0-2.308 0.169-3.444 0.483l-67.225 19.483c-6.56 1.91-10.341 8.77-8.445 15.322s8.756 10.395 15.329 8.461l35.167-10.201-38.958 64.123z" />
<glyph unicode="&#xe90a;" glyph-name="cloud" d="M629.32 673.255c5.215 3.129 10.95 6.257 17.207 9.386 19.814 10.428 41.714 15.643 65.699 15.643 42.757-1.042 78.213-15.643 106.37-43.8s42.757-63.614 43.8-106.37c0-9.386-1.042-19.293-3.129-29.721l-6.257-25.029c8.344-1.042 16.164-3.129 23.464-6.257 40.671-13.556 72.999-37.543 96.985-71.956 25.029-33.371 38.064-72.477 39.107-117.32-1.042-56.313-20.336-103.763-57.878-142.348-38.586-37.543-86.035-56.835-142.348-57.878h-575.651c-63.614 2.086-116.798 23.985-159.555 65.699-41.715 42.757-63.614 95.942-65.699 159.555 1.042 50.056 15.121 93.856 42.236 131.399s63.092 64.657 107.935 81.342v12.514c2.086 70.914 26.593 129.835 73.52 176.762s105.848 71.435 176.762 73.52c41.715 0 80.299-9.386 115.756-28.157 34.414-18.771 63.614-44.32 87.599-76.649 5.215-6.257 9.907-13.035 14.079-20.336zM831.11 482.414c-5.215 6.257-5.735 13.035-1.564 20.336 5.215 14.6 7.821 29.721 7.821 45.363-1.042 35.457-13.035 65.178-35.979 89.163-23.985 22.942-53.706 34.935-89.163 35.979-26.072 0-49.014-7.299-68.828-21.9-6.257-3.129-13.035-4.171-20.336-3.129-7.299 3.129-12.514 7.299-15.643 12.514-19.814 34.414-46.928 61.528-81.342 81.342-34.414 20.857-72.477 31.286-114.192 31.286-63.614-2.086-116.798-23.985-159.555-65.699-41.715-42.757-63.614-95.942-65.699-159.555 0-4.171 0-7.821 0-10.95 0-12.514-5.215-20.857-15.643-25.029-40.671-14.6-72.999-38.585-96.985-71.956s-36.5-72.477-37.543-117.32c1.042-56.313 20.336-103.763 57.878-142.348 38.586-37.543 86.035-56.835 142.348-57.878h575.651c50.056 1.042 91.249 18.249 123.578 51.62 33.371 32.329 50.578 73.52 51.62 123.578-1.042 42.757-14.6 79.778-40.671 111.063-25.029 31.286-58.399 51.62-100.113 61.006-7.299 1.042-12.514 5.215-15.643 12.514zM406.834 358.174c-0.768 5.237-2.532 10.108-5.289 14.612s-6.198 8.415-10.317 11.732c-4.12 3.317-8.799 5.901-14.037 7.752s-10.685 2.776-16.341 2.776c-10.266 0-19.030-2.025-26.293-6.075s-13.163-9.428-17.703-16.132c-4.539-6.704-7.857-14.386-9.951-23.045s-3.142-17.598-3.142-26.817c0-5.797 0.454-11.522 1.362-17.179s2.34-11.051 4.295-16.184c1.955-5.133 4.435-9.864 7.437-14.193s6.635-8.083 10.894-11.26c4.26-3.177 9.131-5.673 14.612-7.49s11.644-2.724 18.488-2.724c7.123 0 13.442 1.152 18.96 3.457s10.266 5.517 14.246 9.637c3.98 4.12 7.175 9.043 9.584 14.77s4.033 12.011 4.871 18.855h44.624c-1.187-13.059-4.242-24.878-9.166-35.458s-11.401-19.589-19.431-27.026c-8.031-7.437-17.441-13.181-28.23-17.232s-22.609-6.075-35.458-6.075c-10.754 0-20.775 1.274-30.064 3.823s-17.756 6.146-25.402 10.79c-7.647 4.644-14.42 10.23-20.321 16.76s-10.859 13.81-14.874 21.84c-4.015 8.031-7.071 16.672-9.166 25.925s-3.142 18.907-3.142 28.963c0 10.335 1.047 20.269 3.142 29.802s5.15 18.383 9.166 26.555c4.015 8.17 8.973 15.608 14.874 22.312s12.675 12.43 20.321 17.179c7.647 4.749 16.097 8.415 25.35 10.998s19.292 3.876 30.115 3.876c11.522 0 22.451-1.659 32.787-4.976s19.554-8.188 27.654-14.612c8.101-6.424 14.805-14.316 20.112-23.674s8.659-20.112 10.055-32.263h-44.624zM469.475 295.114c0 12.152 1.851 23.149 5.551 32.997s8.973 18.279 15.817 25.297c6.844 7.018 15.101 12.43 24.773 16.236s20.443 5.709 32.315 5.709c12.011 0 22.887-1.903 32.63-5.709s18.034-9.219 24.878-16.236c6.844-7.018 12.133-15.45 15.87-25.297s5.604-20.845 5.604-32.997c0-12.152-1.867-23.149-5.604-32.996s-9.026-18.279-15.87-25.297c-6.844-7.018-15.136-12.43-24.878-16.236s-20.618-5.709-32.63-5.709c-11.872 0-22.644 1.903-32.315 5.709s-17.93 9.219-24.773 16.236c-6.844 7.018-12.116 15.45-15.817 25.297s-5.551 20.845-5.551 32.996zM511.48 295.114c0-6.075 0.577-11.976 1.729-17.703s3.126-10.806 5.919-15.241c2.793-4.435 6.529-7.995 11.208-10.685s10.544-4.033 17.598-4.033c7.193 0 13.181 1.344 17.965 4.033s8.625 6.25 11.522 10.685c2.898 4.435 4.941 9.515 6.128 15.241s1.781 11.628 1.781 17.703c0 6.075-0.593 11.976-1.781 17.703s-3.229 10.806-6.128 15.241c-2.898 4.435-6.739 7.995-11.522 10.685s-10.771 4.033-17.965 4.033c-7.053 0-12.919-1.344-17.598-4.033s-8.415-6.25-11.208-10.685c-2.793-4.435-4.766-9.515-5.919-15.241s-1.729-11.628-1.729-17.703zM647.55 341.832c-1.047 12.221-0.069 23.551 2.933 33.992s7.699 19.466 14.088 27.078c6.39 7.612 14.334 13.583 23.831 17.912s20.181 6.495 32.053 6.495c9.777 0 18.96-1.397 27.549-4.19s16.097-6.913 22.522-12.361c6.424-5.447 11.487-12.152 15.189-20.112s5.551-17.074 5.551-27.34c0-6.215-0.751-12.011-2.252-17.388s-3.526-10.37-6.075-14.979c-2.549-4.609-5.517-8.887-8.904-12.832s-7.001-7.595-10.841-10.947c-3.841-3.352-7.804-6.443-11.89-9.27s-8.048-5.465-11.89-7.909c-4.33-2.584-8.711-5.255-13.146-8.014s-8.677-5.551-12.726-8.38c-4.051-2.828-7.717-5.639-10.998-8.432s-5.866-5.551-7.752-8.275h94.799v-37.71h-148.431c0.838 9.288 2.287 17.65 4.347 25.088s4.592 14.159 7.595 20.165c3.002 6.006 6.373 11.366 10.108 16.079s7.699 9.026 11.89 12.937c4.19 3.911 8.519 7.49 12.988 10.737s8.973 6.373 13.512 9.375c7.961 5.168 14.805 9.742 20.531 13.723s10.44 7.839 14.141 11.575c3.701 3.737 6.424 7.559 8.17 11.47s2.618 8.38 2.618 13.408c0 3.98-0.733 7.559-2.2 10.737s-3.457 5.884-5.971 8.118c-2.514 2.235-5.465 3.946-8.852 5.133s-7.001 1.781-10.841 1.781c-5.237 0-9.777-1.362-13.618-4.085s-6.966-6.302-9.375-10.737c-2.409-4.435-4.138-9.515-5.185-15.241s-1.397-11.592-1.047-17.598h-42.423z" />
<glyph unicode="&#xe90b;" glyph-name="arrow-right-tail" d="M720.999 738.383l280.494-270.033c6.039-5.814 9.155-13.502 9.155-19.503s-3.043-15.354-9.132-21.209l-280.494-270.033c-12.174-11.72-31.906-11.72-44.061 0s-12.174 30.717 0 42.418l227.316 218.839h-859.776c-17.227 0-31.166 13.419-31.166 28.316 0 16.585 13.938 30.004 31.166 30.004h859.79l-227.316 218.839c-12.174 11.72-12.174 30.717 0 42.418s31.945 11.683 44.022-0.056z" />
<glyph unicode="&#xe90c;" glyph-name="menu" d="M970.173 906.176c0 25.314-12.505 45.817-27.928 45.817h-726.1c-15.36 0-27.928-20.504-27.928-45.817s12.568-45.817 27.928-45.817h726.1c15.423 0 27.928 20.504 27.928 45.817zM970.173 448c0 25.2-20.515 45.817-45.817 45.817h-824.716c-25.2 0-45.817-20.618-45.817-45.817s20.618-45.817 45.817-45.817h824.716c25.303 0 45.817 20.618 45.817 45.817zM466.179-55.993h458.176c25.303 0 45.817 20.618 45.817 45.817s-20.515 45.817-45.817 45.817h-458.176c-25.2 0-45.817-20.618-45.817-45.817s20.618-45.817 45.817-45.817z" />
<glyph unicode="&#xe90d;" glyph-name="fullscreen" d="M331.991 951.986c19.799 0 35.999-16.11 35.999-35.999s-16.2-35.999-35.999-35.999h-251.993v-251.993c0-19.799-16.101-35.999-35.999-35.999s-35.999 16.2-35.999 35.999v287.992c0 19.889 16.101 35.999 35.999 35.999h287.992zM331.991 16.012c19.799 0 35.999-16.2 35.999-35.999s-16.2-35.999-35.999-35.999h-287.992c-19.898 0-35.999 16.2-35.999 35.999v287.992c0 19.799 16.11 35.999 35.999 35.999s35.999-16.2 35.999-35.999v-251.993h251.993zM979.974 304.004c19.799 0 35.999-16.2 35.999-35.999v-287.992c0-19.898-16.101-35.999-35.999-35.999h-287.992c-19.898 0-35.999 16.101-35.999 35.999s16.101 35.999 35.999 35.999h251.993v251.993c0 19.898 16.101 35.999 35.999 35.999zM979.974 951.986c19.799 0 35.999-16.11 35.999-35.999v-287.992c0-19.799-16.2-35.999-35.999-35.999s-35.999 16.2-35.999 35.999v251.993h-251.993c-19.799 0-35.999 16.11-35.999 35.999s16.2 35.999 35.999 35.999h287.992z" />
<glyph unicode="&#xe90e;" glyph-name="line" d="M857.942 589.728c0-5.69-4.383-10.302-9.805-10.302h-96.042v-38.947h96.042c5.422 0 9.805-4.625 9.805-10.315v-37.094c0-5.702-4.383-10.302-9.805-10.302h-96.042v-38.959h96.042c5.422 0 9.805-4.625 9.805-10.315v-37.094c0-5.678-4.383-10.315-9.805-10.315h-141.237c-2.618 0-5.007 1.113-6.772 2.893-0.046 0.025-0.093 0.085-0.139 0.121-0.046 0.048-0.093 0.109-0.139 0.169-1.696 1.84-2.745 4.334-2.745 7.106v230.47c0 2.748 1.039 5.255 2.723 7.094 0.034 0.060 0.103 0.121 0.161 0.181 0.034 0.036 0.069 0.060 0.103 0.109 1.777 1.792 4.164 2.906 6.806 2.906h141.237c5.422 0 9.805-4.613 9.805-10.315v-37.094zM662.743 396.377c0-5.666-4.395-10.279-9.817-10.279h-35.356c-0.865 0-1.707 0.121-2.515 0.339-0.046 0.012-0.081 0.036-0.139 0.036-0.22 0.073-0.427 0.157-0.68 0.23-0.093 0.036-0.184 0.085-0.277 0.121-0.173 0.073-0.323 0.133-0.472 0.206-0.173 0.085-0.335 0.169-0.473 0.242-0.103 0.060-0.184 0.109-0.288 0.169-0.196 0.109-0.404 0.254-0.611 0.375-0.023 0.036-0.058 0.060-0.093 0.085-0.934 0.665-1.799 1.513-2.491 2.543l-100.761 142.807v-136.874c0-5.666-4.383-10.279-9.828-10.279h-35.344c-5.41 0-9.817 4.613-9.817 10.279v230.47c0 5.678 4.407 10.291 9.817 10.291h35.344c0.127 0 0.22-0.012 0.357-0.012 0.161-0.012 0.323-0.025 0.508-0.036 0.173-0.025 0.335-0.036 0.519-0.073 0.127-0.012 0.266-0.036 0.415-0.060 0.184-0.036 0.357-0.073 0.553-0.133 0.127-0.025 0.23-0.060 0.335-0.085 0.196-0.060 0.404-0.121 0.599-0.206 0.093-0.036 0.208-0.073 0.3-0.121 0.208-0.073 0.392-0.157 0.577-0.242 0.103-0.048 0.196-0.109 0.311-0.157 0.173-0.096 0.335-0.206 0.519-0.315 0.093-0.060 0.208-0.109 0.288-0.181 0.184-0.121 0.357-0.242 0.508-0.375 0.103-0.060 0.184-0.121 0.254-0.206 0.184-0.133 0.369-0.302 0.542-0.46 0.058-0.048 0.103-0.109 0.173-0.169 0.196-0.194 0.404-0.411 0.599-0.642 0.012-0.012 0.034-0.036 0.058-0.060 0.254-0.327 0.519-0.678 0.75-1.041l100.656-142.637v136.923c0 5.678 4.383 10.291 9.805 10.291h35.356c5.422 0 9.817-4.613 9.817-10.291v-230.47zM419.419 396.377c0-5.666-4.395-10.279-9.817-10.279h-35.356c-5.422 0-9.817 4.613-9.817 10.279v230.47c0 5.678 4.395 10.291 9.817 10.291h35.356c5.422 0 9.817-4.613 9.817-10.291v-230.47zM334.196 396.401c0-5.69-4.407-10.315-9.805-10.315h-141.249c-2.63 0-5.018 1.102-6.772 2.881-0.046 0.060-0.103 0.096-0.15 0.133-0.058 0.060-0.093 0.109-0.127 0.169-1.696 1.84-2.757 4.346-2.757 7.106v230.47c0 5.678 4.418 10.291 9.817 10.291h35.356c5.433 0 9.805-4.613 9.805-10.291v-183.037h96.077c5.398 0 9.805-4.625 9.805-10.315v-37.094zM1015.986 522.768c0 236.679-226.079 429.232-503.986 429.232-277.884 0-503.986-192.553-503.986-429.232 0-212.189 179.292-389.886 421.486-423.493 16.415-3.704 38.759-11.344 44.399-26.077 5.087-13.378 3.322-34.334 1.626-47.821 0 0-5.906-37.324-7.187-45.278-2.191-13.39-10.128-52.324 43.661-28.534 53.789 23.801 290.238 179.381 395.981 307.103h-0.023c73.042 84.067 108.027 169.38 108.027 264.101v0z" />
<glyph unicode="&#xe90f;" glyph-name="copy" d="M267.651 660.728c48.76 49.176 105.275 73.765 169.548 73.765 63.165 0 119.68-24.588 169.548-73.765 44.326-48.033 67.597-102.928 69.814-164.685 1.108-62.901-18.838-120.083-59.84-171.548l-8.311-10.292c-17.731-17.155-36.569-18.298-56.516-3.431-16.622 18.298-17.731 37.74-3.324 58.326l8.311 10.292c27.704 33.166 41.002 70.906 39.893 113.221-2.217 42.315-17.731 79.483-46.543 111.506-33.245 32.022-70.921 48.033-113.032 48.033-43.219 0-81.45-16.011-114.694-48.033l-186.171-195.563c-31.029-33.166-46.543-72.050-46.543-116.652 0-43.458 15.514-81.77 46.543-114.936 31.029-30.879 66.49-46.889 106.383-48.033 41.002-1.143 78.125 12.008 111.37 39.456l9.973 10.292c19.948 14.868 38.785 13.152 56.516-5.146 13.298-19.442 11.636-38.313-4.987-56.611l-9.973-10.292c-49.867-42.315-104.721-62.329-164.561-60.042-60.949 2.287-114.694 26.304-161.237 72.050-46.543 50.321-69.814 108.646-69.814 174.978 0 65.187 23.271 122.942 69.814 173.263l187.832 193.849zM756.349 233.577c-48.76-48.033-105.275-72.050-169.548-72.050-63.165 0-119.126 24.017-167.886 72.050-45.434 49.176-69.259 105.215-71.476 168.116-1.108 61.757 18.838 118.367 59.84 169.831l8.311 8.577c17.731 17.155 36.569 18.87 56.516 5.146 16.622-18.298 17.731-37.74 3.324-58.326l-8.311-10.292c-27.704-33.166-41.002-70.906-39.893-113.221 2.217-42.315 17.731-79.483 46.543-111.506 33.245-32.022 70.921-48.033 113.032-48.033 43.219 0 80.895 16.011 113.032 48.033l187.832 195.563c31.029 33.166 46.543 72.050 46.543 116.652 0 43.458-15.514 81.77-46.543 114.936-31.029 30.879-66.49 46.889-106.383 48.033-41.002 2.287-77.571-10.865-109.708-39.456l-11.635-10.292c-18.839-14.868-37.124-13.152-54.854 5.146-14.406 19.442-13.298 38.313 3.324 56.61l9.973 10.292c49.867 42.315 104.721 62.329 164.561 60.042 60.949-2.287 114.694-26.304 161.237-72.050 46.543-50.321 69.814-108.074 69.814-173.263 0-66.332-23.271-124.657-69.814-174.978l-187.832-195.563z" />
<glyph unicode="&#xe910;" glyph-name="facebook" d="M1015.986 444.933c0-253.077-184.301-462.849-425.238-500.919v354.344h117.421l22.354 146.575h-139.774v95.174c0 40.095 19.529 79.186 82.121 79.186h63.567v124.719c0 0-57.674 9.896-112.828 9.896-115.165 0-190.356-70.19-190.356-197.261v-111.716h-128.029v-146.575h128.029v-354.344c-240.938 38.070-425.238 247.843-425.238 500.919 0 280.106 225.574 507.054 503.986 507.054s503.986-226.948 503.986-507.054z" />
<glyph unicode="&#xe911;" glyph-name="twitter" d="M910.781 649.42c0.637-8.784 0.637-17.571 0.637-26.355 0-267.929-207.034-576.647-585.429-576.647-116.577 0-224.869 33.257-315.966 90.984 16.564-1.881 32.488-2.509 49.688-2.509 96.19 0 184.738 32.001 255.447 86.59-90.457 1.882-166.265 60.238-192.384 140.554 12.742-1.881 25.48-3.137 38.86-3.137 18.474 0 36.948 2.511 54.147 6.902-94.28 18.826-164.991 100.396-164.991 198.91v2.509c27.39-15.060 59.246-24.472 93.005-25.725-55.422 36.394-91.732 98.514-91.732 168.791 0 37.647 10.191 72.159 28.029 102.278 101.288-122.984 253.538-203.299 424.261-212.085-3.185 15.060-5.095 30.745-5.095 46.432 0 111.692 91.733 202.675 205.76 202.675 59.244 0 112.754-24.472 150.339-64.002 46.502 8.784 91.092 25.727 130.592 48.943-15.29-47.062-47.778-86.591-90.457-111.689 41.407 4.391 81.54 15.687 118.487 31.371-28.025-40.156-63.064-75.921-103.195-104.788v0z" />
<glyph unicode="&#xe912;" glyph-name="eye" d="M284.457 448.001c0 125.694 101.871 227.565 227.565 227.565s227.565-101.871 227.565-227.565c0-125.694-101.871-227.565-227.565-227.565s-227.565 101.871-227.565 227.565zM512.023 305.773c78.581 0 142.228 63.647 142.228 142.228s-63.647 142.228-142.228 142.228h-5.156c3.912-9.067 5.156-18.667 5.156-28.445 0-62.758-51.024-113.783-113.783-113.783-9.778 0-19.378 1.244-28.445 5.156v-3.555c0-80.181 63.647-143.828 142.228-143.828zM169.644 702.945c83.701 77.799 198.728 143.295 342.379 143.295s258.678-65.496 342.415-143.295c83.204-77.159 138.85-168.007 165.163-233.076 5.867-14.045 5.867-29.69 0-43.736-26.313-63.469-81.959-154.318-165.163-233.076-83.737-77.87-198.764-143.295-342.415-143.295s-258.677 65.425-342.379 143.295c-83.203 78.759-138.815 169.607-165.268 233.076-5.834 14.045-5.834 29.69 0 43.736 26.453 65.069 82.064 155.918 165.268 233.076zM512.023 760.903c-115.916 0-211.209-52.624-284.279-120.361-68.447-63.647-115.702-137.606-139.846-192.542 24.143-53.335 71.398-128.894 139.846-192.542 73.070-67.736 168.363-120.361 284.279-120.361s211.209 52.624 284.279 120.361c68.447 63.647 114.138 139.206 139.917 192.542-25.779 54.936-71.47 128.894-139.917 192.542-73.070 67.736-168.363 120.361-284.279 120.361z" />
<glyph unicode="&#xe913;" glyph-name="eye-close" horiz-adv-x="1056" d="M248.651 717.333c73.095 56.923 166.814 100.269 279.342 100.269 133.318 0 240.074-60.785 317.788-132.989 77.22-71.608 128.864-155.925 153.285-216.314 5.445-13.035 5.445-27.555 0-40.589-22.11-53.296-66.496-128.37-131.834-195.36l173.579-135.958c17.16-13.529 20.294-38.445 6.765-55.604s-38.445-20.294-55.604-6.765l-976.799 765.611c-17.212 13.498-20.23 38.379-6.739 55.594 13.494 17.212 38.375 20.23 55.6 6.74l184.616-144.634zM313.167 666.627l75.9-59.4c37.124 32.341 85.798 51.976 138.93 51.976 116.655 0 211.199-94.544 211.199-211.199 0-34.98-8.414-67.815-23.43-96.855l88.77-69.629c55.274 56.265 96.194 121.77 117.149 166.484-23.924 50.985-66.328 119.624-129.854 178.694-67.815 62.865-156.254 113.189-263.834 113.189-83.324 0-156.584-30.739-214.828-73.261zM651.578 401.477c5.445 14.52 8.414 30.194 8.414 48.016 0 71.443-59.070 131.998-131.998 131.998-1.155 0-2.146-1.485-4.786-1.485 3.631-8.414 4.786-17.324 4.786-24.915 0-18.315-3.96-34.155-10.889-48.181l134.473-105.434zM667.090 186.483l69.136-54.448c-59.896-32.341-129.358-53.625-208.228-53.625-133.318 0-240.074 60.719-317.788 132.989-77.186 73.095-128.797 157.409-153.349 216.314-5.413 13.035-5.413 27.555 0 40.589 15.74 37.785 42.618 86.624 80.239 135.629l62.221-49.004c-30.854-38.445-51.216-76.56-64.928-105.434 22.39-50.985 66.248-121.109 129.772-180.178 67.815-62.865 156.254-111.704 263.834-111.704 50.655 0 97.019 10.889 139.094 28.875v0zM316.797 449.491c0 3.301 0.165 7.92 0.494 12.541l92.563-72.928c17.324-34.814 49.664-60.884 88.439-68.309l92.731-74.415c-19.965-4.786-41.084-9.569-64.514-9.569-115.171 0-211.199 94.544-211.199 212.683h1.485z" />
<glyph unicode="&#xe914;" glyph-name="cloud-arrow-up" d="M493.919 594.078c9.92 10.080 26.24 10.080 36.16 0l128-128c10.080-9.92 10.080-26.24 0-36.16-9.92-10.080-26.24-10.080-36.16 0l-84.32 84.32v-245.44c0-14.080-11.52-25.6-25.6-25.6s-25.6 11.52-25.6 25.6v245.44l-84.32-84.32c-9.92-10.080-26.24-10.080-36.16 0-10.080 9.92-10.080 26.24 0 36.16l128 128zM435.2 806.398c95.2 0 179.36-47.28 230.4-119.68 23.2 11.088 49.28 17.28 76.8 17.28 99.040 0 179.2-80.16 179.2-179.2 0-17.12-2.4-32.16-6.88-49.28 64.96-34.24 109.28-102.56 109.28-181.12 0-113.12-91.68-204.8-204.8-204.8h-588.801c-127.248 0-230.4 103.2-230.4 230.4 0 100.48 64.24 185.76 153.872 217.44 6.608 149.6 129.968 268.96 281.328 268.96v0zM435.2 755.198c-123.84 0-224.8-97.6-230.24-220-0.8-20.96-14.4-37.76-34.080-46.080-69.792-24.64-119.68-91.040-119.68-169.12 0-99.040 80.224-179.2 179.2-179.2h588.801c84.8 0 153.6 68.8 153.6 153.6 0 58.88-33.12 110.080-81.92 135.84-21.44 12.8-32 36.16-25.44 60.8 3.2 9.76 4.96 21.44 4.96 33.76 0 70.72-57.28 128-128 128-19.68 0-38.24-4.48-54.88-12.32-22.4-10.72-49.44-3.52-63.84 16.8-41.76 59.328-110.56 97.92-188.48 97.92v0z" />
<glyph unicode="&#xe915;" glyph-name="check" d="M1013.201 784.7c14.399-14.171 14.399-37.483 0-51.654l-621.679-621.679c-14.171-14.399-37.483-14.399-51.654 0l-329.157 329.125c-14.28 14.171-14.28 37.483 0 51.654 14.271 14.399 37.424 14.399 51.709 0l303.274-303.297 595.853 595.853c14.171 14.308 37.483 14.308 51.654 0z" />
<glyph unicode="&#xe916;" glyph-name="file" d="M858.658 709.441c24.004-24.004 37.406-56.409 37.406-90.415v-555.093c0-70.711-57.31-128.021-128.021-128.021h-512.072c-70.711 0-128.021 57.31-128.021 128.021l-0.013 768.128c0 70.711 57.31 128.021 128.021 128.021h299.050c34.006 0 66.411-13.487 90.615-37.607l213.036-213.036zM813.25 664.232l-212.995 213.077c-6.909 6.908-15.288 11.468-24.244 14.6v-219.877c0-17.603 14.402-32.005 32.005-32.005h219.836c-3.001 9.002-7.602 17.403-14.602 24.204zM832.053 63.933v512.085h-224.037c-53.008 0-96.016 43.008-96.016 96.016v224.037h-256.043c-35.286 0-64.011-28.725-64.011-64.011v-768.128c0-35.286 28.725-64.011 64.011-64.011h512.085c35.286 0 64.011 28.725 64.011 64.011z" />
<glyph unicode="&#xe917;" glyph-name="arrow-down2" d="M478.007 164.278l-463.909 471.111c-18.797 18.793-18.797 49.19 0 67.987l28.393 28.393c18.797 18.797 49.193 18.797 67.987 0l401.523-409.119 401.523 408.72c18.793 18.793 49.19 18.793 67.987 0l28.393-28.397c18.797-18.797 18.797-49.19 0-67.987l-463.909-471.107c-18.797-18.395-49.19-18.395-67.987 0.398z" />
<glyph unicode="&#xe918;" glyph-name="mail" d="M888.496 849.596c35.297-1.394 64.71-14.641 88.241-39.741s35.95-56.474 37.258-94.124v-535.462c-1.308-37.65-13.727-69.024-37.258-94.124s-52.944-38.347-88.241-39.741h-752.993c-35.297 1.394-64.71 14.641-88.241 39.741s-35.95 56.474-37.258 94.124v535.462c1.308 37.65 13.727 69.024 37.258 94.124s52.944 38.347 88.241 39.741h752.993zM982.62 180.27v437.154l-403.949-345.121c-19.609-16.733-41.833-25.1-66.671-25.1s-46.409 8.367-64.71 25.1l-405.91 345.121v-437.154c1.308-27.888 10.458-51.594 27.453-71.116 18.301-18.128 40.525-27.888 66.671-29.283h752.993c26.146 1.394 48.369 11.155 66.671 29.283 16.994 19.522 26.145 43.227 27.453 71.116zM982.62 659.256v56.474c-1.308 27.888-10.458 51.594-27.453 71.116-18.301 18.128-40.525 27.888-66.671 29.283h-752.993c-26.146-1.394-48.369-11.155-66.671-29.283-16.994-19.522-26.145-43.227-27.453-71.116v-56.474l425.519-361.854c13.073-11.155 28.106-16.733 45.102-16.733s32.682 5.578 47.062 16.733l423.558 361.854z" />
<glyph unicode="&#xe919;" glyph-name="headset" d="M512.004 951.986c85.269-1.312 162.265-22.967 230.99-64.966s123.449-98.434 164.175-169.306c40.726-70.872 61.724-150.275 62.997-238.209v-314.987c-1.273-40.686-14.636-74.153-40.089-100.402s-57.907-40.030-97.36-41.342h-200.446c-3.818-22.312-13.999-40.685-30.544-55.123-16.544-15.749-36.271-23.624-59.18-23.624h-62.997c-25.454 1.312-46.453 10.5-62.997 27.562-16.544 18.374-25.454 40.685-26.727 66.935 1.273 26.249 10.181 48.56 26.727 66.935 17.817 17.061 39.453 26.249 64.906 27.562h61.088c22.908 0 42.634-7.875 59.18-23.624 16.544-14.437 26.726-32.811 30.544-55.123h200.446c30.544 1.312 55.998 11.812 76.361 31.499 19.090 20.999 29.271 47.248 30.544 78.747v314.987c-1.273 81.372-20.999 155.525-59.18 222.46-38.18 65.622-89.087 118.12-152.722 157.493-64.907 39.373-136.811 59.717-215.719 61.028-78.906-1.312-150.812-21.655-215.719-61.028-63.634-39.373-114.54-91.871-152.722-157.493-38.18-66.935-57.907-141.087-59.18-222.46v-141.744c-2.546-9.187-8.273-14.437-17.181-15.749-7.637 1.312-12.091 6.563-13.363 15.749v141.744c1.273 87.934 22.271 167.337 62.997 238.209s95.45 127.307 164.175 169.306c68.725 41.998 145.721 63.654 230.99 64.966zM542.548-24.473c17.817 0 32.454 5.906 43.907 17.718s17.181 26.905 17.181 45.279c0 18.374-5.727 33.468-17.181 45.279s-26.090 17.718-43.907 17.718h-61.088c-17.817 0-32.454-5.906-43.907-17.718s-17.181-26.905-17.181-45.279c0-18.374 5.727-33.468 17.181-45.279s26.090-17.718 43.907-17.718h61.088zM298.194 574.002c17.817 0 32.454-5.906 43.907-17.718s17.181-26.905 17.181-45.279v-251.99c0-18.374-5.727-33.468-17.181-45.279s-26.090-17.718-43.907-17.718h-30.544c-34.363 1.312-62.997 13.78-85.905 37.404s-34.999 53.154-36.271 88.59l-1.909 127.964c1.273 34.124 13.363 62.997 36.271 86.621s51.543 36.093 85.905 37.404h32.454zM328.739 259.015v251.99c-1.273 19.687-11.454 30.187-30.544 31.499h-30.544c-25.454-1.312-47.089-10.5-64.906-27.562-16.544-18.374-25.454-40.685-26.727-66.935v-125.995c1.273-26.249 10.181-48.56 26.727-66.935 17.817-17.061 39.453-26.249 64.906-27.562h30.544c19.090 1.312 29.271 11.812 30.544 31.499zM756.357 196.017h-30.544c-17.817 0-32.454 5.906-43.907 17.718s-17.181 26.905-17.181 45.279v251.99c0 18.374 5.727 33.468 17.181 45.279s26.090 17.718 43.907 17.718l30.544-3.937c34.363 0 62.997-11.812 85.905-35.437s34.999-53.154 36.271-88.59v-124.026c-1.273-35.437-13.363-64.966-36.271-88.59s-51.543-36.093-85.905-37.404zM695.268 259.015c1.273-19.687 11.454-30.187 30.544-31.499h30.544c25.454 1.312 47.089 10.5 64.906 27.562 16.544 18.374 25.454 40.685 26.727 66.935v125.995c-1.273 26.249-10.181 48.56-26.727 66.935-17.817 17.061-39.453 26.249-64.906 27.562h-30.544c-19.090-1.312-29.271-12.468-30.544-33.468v-250.021z" />
<glyph unicode="&#xe91a;" glyph-name="world" d="M511.993 951.986c94.496-1.312 179.149-24.28 253.959-68.903 76.123-44.624 136.493-104.995 181.118-181.118 44.624-74.81 67.591-159.462 68.903-253.959-1.312-94.496-24.28-179.149-68.903-253.959-44.624-76.123-104.995-136.493-181.118-181.118-74.81-44.624-159.462-67.591-253.959-68.903-94.496 1.312-179.149 24.28-253.959 68.903-76.123 44.624-136.493 104.995-181.118 181.118-44.624 74.81-67.591 159.462-68.903 253.959 1.312 94.496 24.28 179.149 68.903 253.959 44.624 76.123 104.995 136.493 181.118 181.118 74.81 44.624 159.462 67.591 253.959 68.903zM511.993-24.473c53.811 0 103.683 43.311 149.619 129.933 22.312 43.311 39.373 94.496 51.186 153.557h-401.608c11.812-59.061 28.874-110.245 51.186-153.557 45.936-86.621 95.152-129.933 147.65-129.933h1.969zM305.283 290.514h413.421c9.187 49.873 13.78 102.371 13.78 157.493 0 56.436-4.594 108.933-13.78 157.493h-413.421c-9.187-48.561-13.78-101.058-13.78-157.493 0-55.123 4.594-107.621 13.78-157.493zM712.798 636.999c-11.812 59.061-28.874 110.245-51.186 153.557-45.936 86.621-95.808 129.933-149.619 129.933-55.123 0-104.995-43.311-149.619-129.933-22.312-43.311-39.373-94.496-51.186-153.557h401.608zM752.171 605.5c7.875-49.873 11.812-102.371 11.812-157.493s-3.937-107.621-11.812-157.493h204.742c18.374 49.873 27.562 102.371 27.562 157.493s-9.187 107.621-27.562 157.493h-204.742zM614.364 908.676c61.685-55.123 105.652-145.681 131.901-271.677h198.836c-30.187 69.56-74.153 127.964-131.901 175.212s-124.026 79.404-198.836 96.465zM411.591 908.676c-76.123-17.061-143.056-49.217-200.805-96.465s-101.714-105.652-131.901-175.212h198.836c26.249 125.996 70.872 216.554 133.869 271.677zM39.513 448.007c0-55.123 9.187-107.621 27.562-157.493h204.742c-7.875 49.873-11.812 102.371-11.812 157.493s3.937 107.621 11.812 157.493h-204.742c-18.374-49.873-27.562-102.371-27.562-157.493zM945.1 259.015h-198.836c-26.249-125.996-70.215-217.209-131.901-273.645 74.81 18.374 141.087 51.186 198.836 98.434s101.714 105.652 131.901 175.212zM277.722 259.015h-198.836c30.187-69.56 74.153-127.964 131.901-175.212s124.682-80.059 200.805-98.434c-62.997 56.436-107.621 147.649-133.869 273.645z" />
<glyph unicode="&#xe91b;" glyph-name="facebook1" d="M328.158 321.292h123.899v-377.286l-18.78 2.959c-243.498 38.361-425.256 249.66-425.256 499.449 0 279.281 225.577 505.565 503.986 505.565s503.986-226.283 503.986-505.565c0-249.788-181.758-461.087-425.256-499.449l-18.78-2.959v377.286h115.938l16.645 108.814h-132.581v108.142c0 55.106 32.417 92.715 95.729 92.715h45.26v90.017c-6.256 0.885-13.024 1.761-20.184 2.59-22.725 2.63-45.303 4.319-66.266 4.62-3.245 0.039-4.347 0.047-6.48 0.047-105.128 0-167.958-63.094-167.958-174.028v-124.103h-123.899v-108.814zM983.478 446.414c0 261.268-211.018 472.948-471.471 472.948s-471.471-211.68-471.471-472.948c0-227.198 160.759-420.374 379.006-463.878v306.139h-123.899v174.047h123.899v91.485c0 128.939 77.38 206.645 200.473 206.645 2.29 0 3.473-0.009 6.944-0.050 22.178-0.318 45.801-2.085 69.529-4.831 9.199-1.065 17.783-2.206 25.526-3.349 4.678-0.69 8.060-1.231 9.923-1.55l13.525-2.314v-150.413h-77.774c-44.22 0-63.215-22.037-63.215-60.098v-75.526h137.95l-26.622-174.047h-111.329v-306.139c218.247 43.503 379.006 236.679 379.006 463.878z" />
<glyph unicode="&#xe91c;" glyph-name="grid" d="M8.007 843.996c0 59.645 48.352 107.998 107.998 107.998h215.995c59.624 0 107.998-48.352 107.998-107.998v-215.995c0-59.624-48.373-107.998-107.998-107.998h-215.995c-59.645 0-107.998 48.373-107.998 107.998v215.995zM80.005 843.996v-215.995c0-19.8 16.109-36.001 36.001-36.001h215.995c19.8 0 36.001 16.2 36.001 36.001v215.995c0 19.889-16.2 36.001-36.001 36.001h-215.995c-19.889 0-36.001-16.109-36.001-36.001zM8.007 268.011c0 59.624 48.352 107.998 107.998 107.998h215.995c59.624 0 107.998-48.373 107.998-107.998v-215.995c0-59.624-48.373-107.998-107.998-107.998h-215.995c-59.645 0-107.998 48.373-107.998 107.998v215.995zM80.005 268.011v-215.995c0-19.8 16.109-36.001 36.001-36.001h215.995c19.8 0 36.001 16.2 36.001 36.001v215.995c0 19.8-16.2 36.001-36.001 36.001h-215.995c-19.889 0-36.001-16.2-36.001-36.001zM907.984 951.993c59.624 0 107.998-48.352 107.998-107.998v-215.995c0-59.624-48.373-107.998-107.998-107.998h-215.995c-59.624 0-107.998 48.373-107.998 107.998v215.995c0 59.645 48.373 107.998 107.998 107.998h215.995zM907.984 879.995h-215.995c-19.8 0-36.001-16.109-36.001-36.001v-215.995c0-19.8 16.2-36.001 36.001-36.001h215.995c19.8 0 36.001 16.2 36.001 36.001v215.995c0 19.889-16.2 36.001-36.001 36.001zM583.99 268.011c0 59.624 48.373 107.998 107.998 107.998h215.995c59.624 0 107.998-48.373 107.998-107.998v-215.995c0-59.624-48.373-107.998-107.998-107.998h-215.995c-59.624 0-107.998 48.373-107.998 107.998v215.995zM655.988 268.011v-215.995c0-19.8 16.2-36.001 36.001-36.001h215.995c19.8 0 36.001 16.2 36.001 36.001v215.995c0 19.8-16.2 36.001-36.001 36.001h-215.995c-19.8 0-36.001-16.2-36.001-36.001z" />
<glyph unicode="&#xe91d;" glyph-name="bear" d="M889.654 594.928c-1.475-16.433-16.152-28.582-32.785-27.138-16.601 1.459-28.892 15.989-27.418 32.436 1.475 16.464 16.169 28.613 32.77 27.17 16.617-1.491 28.908-15.989 27.434-32.468zM1003.776 584.676c7.125-6.384 8.95-16.725 4.385-25.088-0.109-0.189-10.81-19.864-26.97-53.018-2.947-6.029-8.659-10.294-15.375-11.465l-113.605-19.746c-0.434-0.083-72.987-13.953-112.143-35.073-10.532-9.049-62.286-51.857-120.452-72.823-1.921-66.996 27.247-120.879 31.246-127.867l36.741-48.884c4.722-6.29 5.435-14.652 1.836-21.64-3.587-6.976-10.882-11.383-18.854-11.383h-128.919c-7.948 0-15.242 4.383-18.841 11.336-92.782 178.955-72.902 289.918-72.009 294.562 2.162 11.24 13.225 18.62 24.687 16.524 11.45-2.12 18.986-12.899 16.873-24.116-0.23-1.29-16.522-98.728 62.37-256.848h74.001l-12.633 16.808-1.159 1.717c-3.019 4.987-73.277 123.603-14.941 247.561 4.88 10.4 17.452 14.937 28.044 10.139 10.604-4.797 15.23-17.116 10.339-27.516-5.121-10.886-8.865-21.748-11.776-32.503 47.007 22.245 86.465 56.868 86.948 57.306 1.123 0.995 2.368 1.872 3.684 2.618 44.809 25.1 123.93 40.214 127.277 40.854l103.242 17.945c2.138 4.312 4.095 8.233 5.966 11.964-12.223 1.363-21.209 12.023-20.109 24.116 0.483 5.437 2.996 10.151 6.631 13.728-37.646 30.821-75.354 58.337-87.625 67.186l-60.365 8.777c-7.948 1.161-14.554 6.644-17.018 14.155-5.616 17.080-14.348 17.105-14.397 17.080-7.657-0.924-11.981-3.281-11.981-3.293 0.423-5.744-1.594-11.395-5.592-15.612-3.986-4.228-9.59-6.621-15.448-6.633l-228.26-0.332c-2.187 0.202-4.759 0.391-7.017 1.161-2.67 0.913-269.192 90.603-384.281-3.53-45.835-37.501-61.85-101.76-47.587-191.013 6.45-40.356 19.337-62.067 31.801-83.057 13.769-23.18 27.996-47.131 27.996-88.945l-0.483-109.566h82.927c-22.947 58.776-3.321 129.359-2.307 132.925 0.725 2.524 1.921 4.892 3.551 6.976 43.735 56.287 50.003 139.038 50.062 139.865 0.797 11.407 11.112 19.923 22.513 19.26 11.643-0.77 20.448-10.637 19.662-22.044-0.168-2.57-3.261-43.685-20.218-90.424h141.589l6.232-41.458h-166.445c-5.048-9.168-10.689-18.195-17.126-26.83-3.925-16.381-18.177-86.693 15.001-125.734 5.242-6.171 6.377-14.771 2.899-22.055s-10.942-11.94-19.144-11.94h-140.429c-5.629 0-11.015 2.203-14.977 6.1-3.961 3.908-6.184 9.204-6.159 14.723l0.58 130.295c0 30.525-9.336 46.231-22.247 67.99-13.080 22.032-29.361 49.441-37.043 97.496-16.728 104.687 4.24 181.821 62.322 229.307 127.107 103.905 387.010 23.394 421.783 11.951l209.116 0.308c6.715 11.739 20.086 22.47 42.997 25.159 12.863 1.99 39.905-2.985 55.22-33.012l53.638-7.795c3.358-0.498 6.534-1.765 9.288-3.708 3.044-2.167 75.16-53.432 130.489-102.946z" />
<glyph unicode="&#xe91e;" glyph-name="whale" horiz-adv-x="1463" d="M1066.53 944.916c7.952-14.013 2.633-31.587-11.894-39.289-1.136-0.629-55.303-30.626-67.248-84.242-1.325-10.833-8.899-20.174-19.828-23.851l-0.138-0.050-4.131-1.176c-1.928-0.364-3.821-0.53-5.714-0.53l-0.138 0.033-0.12-0.033c-1.893 0-3.804 0.166-5.714 0.53l-4.131 1.176-0.138 0.050c-10.93 3.694-18.503 13.019-19.828 23.851-12.014 53.931-66.714 83.944-67.265 84.259-14.475 7.768-19.76 25.392-11.756 39.355 8.038 13.963 26.231 19.114 40.758 11.445 2.255-1.193 39.588-21.234 68.195-60.192 28.624 38.957 65.94 58.999 68.212 60.192 14.579 7.669 32.91 2.518 40.879-11.528zM1205.862 822.064c2.306-15.835-9.14-30.46-25.577-32.713-7.866-1.093-192.535-28.903-192.535-201.727l-0.31-2.965h-59.984l-0.31 2.965c0 173.801-184.6 200.667-192.466 201.71-16.472 2.22-27.953 16.878-25.646 32.729 2.289 15.851 17.436 26.949 33.994 24.68 61.964-8.331 164.152-47.753 214.412-138.537 50.277 90.785 152.465 130.206 214.429 138.537 16.472 2.269 31.705-8.828 33.994-24.68zM1063.965 370.113c-1.566-17.16-17.333-29.847-35.216-28.34-17.832 1.524-31.016 16.696-29.433 33.872 1.566 17.193 17.35 29.881 35.182 28.373 17.866-1.54 31.051-16.696 29.467-33.905zM1462.857 505.668l-0.017-0.199 0.017-0.199v-18.005c0-214.713-196.976-392.406-451.131-419.388-21.894-35.346-54.235-74.983-99.159-99.646-46.576-25.591-97.989-32.233-138.73-32.233-41.929 0-72.549 7.023-75.011 7.603-15.629 3.694-25.474 18.551-22.376 33.74 1.033 5.019 26.197 123.431 122.206 176.219 18.297 10.054 38.658 17.872 60.552 23.222 16.025 3.992 32.514-5.433 36.61-20.953 4.096-15.503-5.646-31.272-21.773-35.231-16.627-4.075-31.929-9.905-45.492-17.375-46.869-25.773-72.067-75.861-83.995-107.845 34.338-3.114 90.811-2.816 138.145 23.205 73.634 40.448 107.576 140.988 107.92 142.015 5.026 15.222 21.928 23.719 37.798 18.866 15.835-4.82 24.631-21.069 19.656-36.324-0.293-0.878-1.824-5.383-4.544-12.257 162.896 28.705 293.192 126.794 340.078 253.156h-65.2c-7.883 0-21.567-1.077-29.312-2.286-0.706-0.133-87.386-15.686-166.975-106.222-20.723-23.57-60.57-44.539-101.724-44.539-5.749 0-11.532 0.398-17.281 1.275-27.953 4.224-66.095 20.572-89.142 74.453-6.334 14.808 0.998 31.752 16.386 37.831 15.353 6.095 32.996-0.961 39.313-15.768 9.966-23.255 24.355-36.456 42.789-39.255 23.477-3.545 51.327 9.408 63.668 23.454 94.736 107.746 198.8 125.27 203.189 125.965 10.861 1.723 28.039 3.064 39.089 3.064h80.277c1.79 11.412 2.926 22.957 3.356 34.667l-928.183 0.033c-2.392 0.017-4.699 0.381-6.919 0.911l-1.962 0.58c-1.962 0.613-3.804 1.391-5.577 2.352l-0.998 0.431-1.239 0.795c-38.366 23.139-64.976 57.21-81.603 84.159-27.109 56.597 11.67 89.41 11.67 89.41l-0.069 0.083c24.149 20.506 50.414 49.392 63.564 85.733 17.298 47.703 8.692 99.083-0.379 131.332-27.97-19.793-67.936-54.891-85.235-102.611-8.761-24.166-10.861-49.078-9.69-72.002-0.43-26.651-14.131-34.883-28.434-42.287-38.607-19.942-66.112 9.839-66.112 9.839l0.017-0.133c-14.355 18.286-32.531 36.026-55.113 49.028-38.486 22.195-83.582 26.866-114.65 26.866-6.833 0-13.253-0.215-19.123-0.563 14.493-30.361 42.101-75.182 87.162-101.186 36.232-20.887 78.195-26.137 108.901-26.7l0.017-0.116c66.697 1.557 65.079-64.432 65.079-64.432l0.258-0.099c7.918-189.917 174.6-368.008 371.748-414.253-13.339-15.52-27.212-33.243-37.97-50.601-216.546 60.457-390.337 257.314-394.313 471.43-38.607 0.099-94.736 6.278-144.668 35.048-93.41 53.898-125.786 162.637-127.129 167.242-2.203 7.652-1.067 15.851 3.201 22.675 4.234 6.824 11.205 11.661 19.26 13.4 1.17 0.248 29.020 6.128 67.575 6.128 38.658 0 95.304-6.079 145.615-35.098 22.995-13.267 42.239-29.847 58.298-47.388 0.637 23.355 4.372 47.951 13.202 72.3 35.836 98.934 140.004 151.49 144.41 153.676 7.35 3.644 15.921 4.224 23.718 1.59 7.797-2.617 14.131-8.199 17.522-15.454 2.048-4.356 49.571-107.812 13.718-206.729-18.486-51.016-55.079-89.592-86.835-115.398 11.308-20.555 32.066-51.479 62.601-72.018h949.354c16.644 0 30.121-12.986 30.121-28.986z" />
<glyph unicode="&#xe91f;" glyph-name="elephant" d="M555.964 80.283c-0.62 11.472-1.41 24-2.393 37.35-3.243 44.059-7.891 88.136-14.211 129.402-7.388 48.242-16.604 89.517-28.005 121.93-4.079 11.597-16.471 17.576-27.676 13.354s-16.982-17.047-12.903-28.645c10.299-29.278 18.941-67.978 25.932-113.634 6.116-39.935 10.641-82.859 13.803-125.8 1.107-15.044 1.965-29.008 2.602-41.528 0.38-7.477 0.602-12.785 0.697-15.557 0.408-12.031 9.947-21.565 21.578-21.565h165.052c15.24 0 25.685 15.901 20.078 30.569l-18.999 49.698 8.903 228.569c0.48 12.334-8.789 22.732-20.705 23.23s-21.963-9.097-22.445-21.43l-9.087-233.294 1.497-9.121 8.993-23.527h-112.715zM847.332 342.432c-15.53 9.411-29.95 19.38-43.812 29.932-7.733 5.887-22.59 17.875-21.713 17.203-9.584 7.345-11.601 21.339-4.505 31.258s20.617 12.006 30.201 4.663c-0.282 0.216 14.503-11.713 21.604-17.12 12.719-9.682 25.908-18.801 40.042-27.366 41.8-25.328 84.215-41.186 125.638-43.618 11.906-0.7 21.009-11.255 20.334-23.577s-10.875-21.745-22.781-21.046c-6.2 0.365-12.391 0.972-18.571 1.811v-136.324c0-1.76-0.197-3.473-0.568-5.116-2.258-70.002-50.66-137.772-126.189-137.772-11.925 0-21.592 10.005-21.592 22.348s9.667 22.348 21.592 22.348c11.925 0 21.592-10.005 21.592-22.348s-9.667-22.348-21.592-22.348c-58.516 0-105.336 51.704-105.336 114.803 0-12.342 9.667-22.348 21.592-22.348s21.592 10.005 21.592 22.348c0-39.038 28.134-70.106 62.152-70.106 49.751 0 83.089 48.473 83.089 98.192 0 1.625 0.168 3.21 0.486 4.735v141.192c-28.114 8.627-55.918 21.692-83.255 38.257zM973.771 546.236v-141.584c0-12.342-9.667-22.348-21.592-22.348s-21.592 10.005-21.592 22.348v136.847c-0.318 1.526-0.486 3.111-0.486 4.735 0 121.444-42.644 220.796-118.328 243.234-28.108 8.329-53.183 21.223-74.048 39.007-20.567 17.494-54.020 30.582-75.534 30.582-48.917 0-80.581-36.153-80.581-167.122 0-80.716 25.589-138.008 68.182-177.11 14.83-13.615 30.737-24.016 46.591-31.591 9.302-4.445 16.281-6.901 19.743-7.792 11.572-2.982 18.617-15.107 15.736-27.084s-14.596-19.269-26.168-16.288c-21.967 5.661-53.319 20.64-84.559 49.319-51.714 47.477-82.711 116.875-82.711 210.547 0 154.725 49.999 211.817 123.764 211.817 31.793 0 74.854-16.846 102.97-40.762 16.027-13.659 35.806-23.831 58.501-30.556 97.935-29.032 148.444-144.404 149.604-281.369 0.331-1.556 0.506-3.173 0.506-4.832zM511.287 241.302c11.467 3.388 23.416-3.488 26.691-15.355s-3.37-24.236-14.837-27.623c-98.171-29.002-192.114-14.263-244.917 20.697-17.865-11.222-38.552-21.347-62.803-30.549l-17.289-120.956 8.593-48.923c2.41-13.718-7.773-26.347-21.243-26.347h-155.044c-12.571 0-22.484 11.072-21.53 24.045l9.679 131.528c2.058 28.237 3.091 56.399 3.091 84.456 0 20.395-1.739 57.942-5.161 117.129-0.469 8.078-0.469 8.078-0.941 16.125-0.533 9.060-1.151 19.465-2.254 38.046-0.866 14.613-1.457 24.779-1.972 33.912-1.316 23.424-1.957 37.411-1.957 44.387 0 89.873 38.276 163.416 102.049 209.503 114.845 82.953 256.142 102.477 402.423 81.543 11.812-1.69 20.064-12.972 18.431-25.198s-12.533-20.766-24.347-19.076c-136.522 19.539-267.451 1.448-371.789-73.919-52.373-37.849-83.582-97.815-83.582-172.854 0-10.206-0.437-2.416 6.103-113.631 0.474-8.066 0.474-8.066 0.943-16.171 3.482-60.216 5.239-98.143 5.239-119.798 0-29.181-1.074-58.464-3.215-87.831l-7.91-107.5h105.873l-4.602 26.202-0.116 7.267 19.714 137.937c1.187 8.305 6.77 15.22 14.455 17.905 44.965 15.704 75.672 33.739 98.288 55.291 13.181 12.559 19.789 21.171 37.040 46.35 6.898 10.067 20.375 12.443 30.103 5.303s12.022-21.088 5.124-31.156c-18.967-27.686-26.898-38.021-43.018-53.38-0.143-0.137-0.288-0.273-0.431-0.41 44.501-21.844 117.659-29.829 195.115-6.947z" />
<glyph unicode="&#xe920;" glyph-name="pie-chart" d="M512.007 917.181c0 18.94 14.568 34.807 33.665 34.807 259.667 0 470.316-208.875 470.316-470.316 0-19.096-15.946-33.665-34.846-33.665h-437.635c-17.324 0-31.499 14.174-31.499 31.499v437.675zM575.004 511.004h377c-14.371 201.592-175.409 362.57-377 376.941v-376.941zM449.010 385.010h435.667c36.42 0 65.556-30.908 58.076-66.541-45.082-213.994-234.862-374.441-462.244-374.441-260.848 0-472.48 211.632-472.48 472.48 0 227.382 160.505 417.122 374.441 462.283 35.633 7.521 66.541-21.695 66.541-58.116v-435.667zM386.012 815.046c-180.527-42.641-314.987-205.018-314.987-398.538 0-226.2 183.283-409.483 409.483-409.483 193.52 0 355.935 134.46 398.459 314.987h-429.957c-34.846 0-62.997 28.152-62.997 62.997v430.036z" />
<glyph unicode="&#xe921;" glyph-name="phone" d="M920.767 900.788c52.078 0 94.33-43.519 94.33-97.026v-646.841c0-89.182-70.533-161.71-157.218-161.71h-723.204c-69.372 0-125.774 58.054-125.774 129.368v614.498c0 17.788 14.070 32.343 31.443 32.343s31.443-14.554 31.443-32.343v-614.498c0-35.697 28.22-64.684 62.887-64.684s62.887 28.987 62.887 64.684v679.182c0 53.507 42.252 97.026 94.33 97.026h628.872zM952.211 156.923v646.841c0 17.807-14.15 32.343-31.443 32.343h-628.872c-17.293 0-31.443-14.533-31.443-32.343v-679.182c0-23.65-6.092-45.684-16.9-64.684h614.33c52.019 0 94.33 43.519 94.33 97.026zM543.441 350.974c17.293 0 31.443-14.464 31.443-32.343s-14.064-32.343-31.443-32.343h-188.662c-17.38 0-31.443 14.554-31.443 32.343s14.15 32.343 31.443 32.343h188.662zM857.879 350.974c17.293 0 31.443-14.464 31.443-32.343s-14.064-32.343-31.443-32.343h-188.662c-17.38 0-31.443 14.554-31.443 32.343s14.15 32.343 31.443 32.343h188.662zM543.441 221.606c17.293 0 31.443-14.464 31.443-32.343s-14.064-32.343-31.443-32.343h-188.662c-17.38 0-31.443 14.554-31.443 32.343s14.15 32.343 31.443 32.343h188.662zM857.879 221.606c17.293 0 31.443-14.464 31.443-32.343s-14.064-32.343-31.443-32.343h-188.662c-17.38 0-31.443 14.464-31.443 32.343s14.064 32.343 31.443 32.343h188.662zM826.435 771.421c34.783 0 62.887-28.905 62.887-64.684v-194.054c0-35.719-28.16-64.684-62.887-64.684h-440.212c-34.725 0-62.887 28.965-62.887 64.684v194.054c0 35.779 28.102 64.684 62.887 64.684h440.212zM826.435 512.685v194.054h-440.212v-194.054h440.212z" />
<glyph unicode="&#xe922;" glyph-name="world-tree" d="M336.995 228.747l8.491 43.289 42.142 3.151 76.068-38.11-61.226-108.442-19.795 67.361c-1.543 5.227-5.105 9.682-9.935 12.434l-35.744 20.317zM511.936-13.714c-149.632 0-271.364 118.026-271.364 263.093 0 27.499 4.395 54.021 12.499 78.95l49.611-48.432-11.379-57.884c-1.718-8.777 2.44-17.661 10.383-22.176l41.47-23.576 31.971-108.731c2.427-8.245 9.748-14.244 18.525-15.198l2.427-0.133c7.894 0 15.263 4.165 19.11 10.986l97.443 172.59c2.813 4.986 3.436 10.866 1.718 16.309s-5.615 9.984-10.832 12.603l-101.39 50.786c-3.598 1.798-7.619 2.619-11.679 2.294l-45.18-3.369-2.527 19.628 73.465 48.432c6.175 4.080 9.761 10.926 9.525 18.156l-3.237 97.129c28.024 9.513 58.103 14.751 89.437 14.751 32.519 0 63.729-5.589 92.662-15.802l-25.921-60.275c-3.436-7.992-1.494-17.202 4.893-23.25l19.832-18.771c4.332-4.105 10.271-6.241 16.309-5.976l82.752 4.068-11.653-22.429-74.549-8.511c-4.195-0.471-8.155-2.124-11.404-4.745-27.912-22.55-39.951-45.776-35.806-69.015 6.412-35.939 49.213-52.15 54.069-53.889 2.042-0.724 4.171-1.147 6.337-1.268l14.217-0.748 21.7-104.083c1.718-8.221 8.28-14.679 16.732-16.466 1.543-0.314 3.088-0.471 4.619-0.471 6.898 0 13.508 3.175 17.653 8.728l32.332 43.313 1.569 2.463 45.055 81.92c-1.17-144.113-122.441-261.004-271.401-261.004zM379.535 478.924l2.266-68.061-74.573-49.169c-5.877-3.875-9.375-10.226-9.537-16.973l-26.492 25.87c24.475 45.511 62.248 83.248 108.336 108.332zM704.257 434.874l-77.237-3.791-2.44 2.305 19.632 45.632c22.098-12 42.303-26.871 60.045-44.146zM724.451 340.906l21.563 41.49c11.877-19.568 21.201-40.729 27.576-63.075l-73.042-132.802-2.315-3.091-15.188 72.854c-1.967 9.428-10.259 16.381-20.168 16.913l-27.414 1.436c-8.566 3.731-22.023 12.241-23.467 20.353-1.096 6.084 4.843 15.367 16.060 25.375l79.491 9.066c7.259 0.833 13.607 5.142 16.907 11.481zM416.161 666.93c-3.337-6.531-14.068-10.756-27.314-10.756-15.997 0-32.394 5.891-43.822 15.729-19.832 17.094-31.212 35.54-37.473 48.806 16.42 2.958 41.893 4.080 62.895-0.399 19.932-4.286 35.731-20.099 42.553-33.886 4.457-9.006 4.793-16.296 3.163-19.496zM521.474 554.505c12.102 42.155 27.663 78.974 44.581 110.806 13.657-4.865 29.058-7.461 45.54-7.461 51.816 0 118.645 25.979 151.164 84.020 50.184 89.645 40.162 185.458 39.714 189.503l-1.793 15.922-16.296 2.632c-1.307 0.206-13.371 2.064-33.066 2.064-39.739 0-100.543-7.316-164.471-42.203-46.201-25.218-79.143-73.203-85.976-125.233-2.839-21.584-0.535-42.070 6.088-60.142 11.628 19.894 24.226 38.991 37.548 56.895 5.677 37.676 30.44 73.493 63.704 91.661 58.65 31.99 114.835 36.77 143.108 36.77 3.113 0 5.976-0.060 8.591-0.145 0.262-29.178-3.586-90.659-35.444-147.554-23.841-42.553-75.221-61.94-112.867-61.94-8.553 0-16.334 1.159-23.518 2.958 54.492 85.226 113.253 124.025 114.337 124.726 10.035 6.41 12.822 19.484 6.225 29.226-6.598 9.754-20.106 12.47-30.165 6.073-5.105-3.247-108.263-70.499-173.597-225.199-15.425 15.633-32.967 27.705-44.296 34.743-0.15 10.226-2.864 21.089-8.291 32.063-14.105 28.526-41.856 50.315-72.457 56.87-13.146 2.812-26.966 4.238-41.071 4.238-37.809 0-66.057-10.249-67.24-10.684l-17.093-6.302 3.436-17.419c0.399-2.016 10.284-49.748 58.227-91.081 19.484-16.768 46.001-26.389 72.755-26.389 22.359 0 41.569 6.905 54.604 18.977 15.014-10.068 34.199-25.556 43.81-41.937-4.071-12.289-7.868-25.049-11.367-38.268-156.94-17.347-278.895-146.467-278.895-303.315 0-168.631 141.004-305.343 314.937-305.343 174.045 0 315.037 136.713 315.037 305.343 0 165.565-135.887 300.238-305.5 305.127v0z" />
<glyph unicode="&#xe923;" glyph-name="download" d="M487.282 134.595l-315.009 323.942c-13.671 14.039-13.649 36.83 0 50.893s35.809 14.062 49.48 0l255.248-262.564v669.122c0 19.889 15.749 35.999 34.999 35.999s34.999-16.109 34.999-35.999v-669.122l255.248 262.582c13.649 14.062 35.809 14.039 49.48 0s13.671-36.83 0-50.893l-314.987-323.987c-6.83-7.033-15.771-10.548-24.739-10.548s-17.936 3.6-24.718 10.575v0zM896.984 16.025c19.249 0 34.999-16.1 34.999-35.999s-15.653-35.999-34.999-35.999h-769.968c-19.345 0-34.999 16.199-34.999 35.999s15.653 35.999 34.999 35.999h769.968z" />
</font>
</defs>
</svg>
